<?xml version="1.0" encoding="UTF-8" standalone="no"?>
<!-- Created with Inkscape (http://www.inkscape.org/) -->
<svg
   xmlns:dc="http://purl.org/dc/elements/1.1/"
   xmlns:cc="http://web.resource.org/cc/"
   xmlns:rdf="http://www.w3.org/1999/02/22-rdf-syntax-ns#"
   xmlns:svg="http://www.w3.org/2000/svg"
   xmlns="http://www.w3.org/2000/svg"
   xmlns:sodipodi="http://sodipodi.sourceforge.net/DTD/sodipodi-0.dtd"
   xmlns:inkscape="http://www.inkscape.org/namespaces/inkscape"
   version="1.0"
   width="660"
   height="580"
   viewBox="0 0 500 500"
   id="Layer_1"
   xml:space="preserve"
   sodipodi:version="0.32"
   inkscape:version="0.45.1"
   sodipodi:docname="Rhode Island.svg"
   inkscape:output_extension="org.inkscape.output.svg.inkscape"
   sodipodi:docbase="C:\Documents and Settings\Peter\My Documents\My Pictures\Flag Designs\Others\html\way\vw\vexi\VexiWiki\svgs"><metadata
   id="metadata38"><rdf:RDF><cc:Work
       rdf:about=""><dc:format>image/svg+xml</dc:format><dc:type
         rdf:resource="http://purl.org/dc/dcmitype/StillImage" /></cc:Work></rdf:RDF></metadata><sodipodi:namedview
   inkscape:window-height="712"
   inkscape:window-width="1024"
   inkscape:pageshadow="2"
   inkscape:pageopacity="0.0"
   guidetolerance="10.0"
   gridtolerance="10.0"
   objecttolerance="10.0"
   borderopacity="1.0"
   bordercolor="#666666"
   pagecolor="#ffffff"
   id="base"
   borderlayer="true"
   width="660px"
   height="580px"
   inkscape:zoom="0.88965517"
   inkscape:cx="330"
   inkscape:cy="287.63953"
   inkscape:window-x="-4"
   inkscape:window-y="-4"
   inkscape:current-layer="Layer_1" /><defs
   id="defs2308" />
<rect
   width="568.96552"
   height="500"
   x="-34.482758"
   y="1.2665987e-006"
   style="fill:#ffffff"
   id="rect607" />














<g
   id="g6142"><g
     transform="matrix(1.0480155,0,0,1.0557409,-12.004553,-10.306289)"
     style="fill:#0000ff;stroke-width:0.86206895;stroke-miterlimit:4;stroke-dasharray:none"
     id="g2269">
	<path
   id="path2271"
   style="fill:#0000ff;stroke:#010101;stroke-width:0.86206895;stroke-miterlimit:4;stroke-dasharray:none"
   d="M 277.865,341.365 C 307.866,336.365 326.366,311.365 326.366,311.365 L 323.866,328.365 L 341.366,325.865 C 341.366,325.865 325.866,350.365 279.365,364.365 L 277.865,341.365 z " />
	<path
   id="path2273"
   style="fill:#0000ff;stroke:#010101;stroke-width:0.86206895;stroke-miterlimit:4;stroke-dasharray:none"
   d="M 279.066,364.215 L 293.567,348.215 L 277.566,341.215 C 277.566,341.215 275.066,356.715 279.066,364.215 z " />
	<path
   id="path2275"
   style="fill:#0000ff;stroke:#010101;stroke-width:0.86206895;stroke-miterlimit:4;stroke-dasharray:none"
   d="M 224.624,341.365 C 194.624,336.365 176.124,311.365 176.124,311.365 L 178.624,328.365 L 161.124,325.865 C 161.124,325.865 176.624,350.365 223.124,364.365 L 224.624,341.365 z " />
	<path
   id="path2277"
   style="fill:#0000ff;stroke:#010101;stroke-width:0.86206895;stroke-miterlimit:4;stroke-dasharray:none"
   d="M 223.423,364.215 L 208.923,348.215 L 224.923,341.215 C 224.923,341.215 227.423,356.715 223.423,364.215 z " />
	<path
   id="path2279"
   style="fill:#0000ff;stroke:#010101;stroke-width:0.86206895;stroke-miterlimit:4;stroke-dasharray:none"
   d="M 293.874,320.721 C 278.382,328.797 263.816,331.599 251.245,331.732 C 238.674,331.599 224.108,328.797 208.616,320.721 L 208.616,347.721 C 224.058,355.771 238.58,358.579 251.124,358.729 L 251.124,358.735 C 251.164,358.735 251.205,358.733 251.245,358.732 C 251.285,358.733 251.326,358.735 251.366,358.735 L 251.366,358.729 C 263.91,358.58 278.431,355.771 293.874,347.721 L 293.874,320.721 z " />
</g><g
     transform="matrix(0.9310466,0,0,0.9379098,17.194797,30.494121)"
     style="stroke:none;stroke-width:0.86206895;stroke-miterlimit:4;stroke-dasharray:none"
     id="g2281">
	<g
   style="stroke:none;stroke-width:0.86206895;stroke-miterlimit:4;stroke-dasharray:none"
   id="g2283">
		<path
   id="path2285"
   style="fill:#fcc50e;stroke:none;stroke-width:0.86206895;stroke-miterlimit:4;stroke-dasharray:none"
   d="M 216.072,329.481 C 217.51,330.039 218.957,330.56 220.413,331.046 C 220.413,333.254 220.413,335.461 220.413,337.669 C 222.253,338.283 224.107,338.842 225.973,339.344 C 225.973,337.136 225.973,334.928 225.973,332.721 C 227.467,333.122 228.968,333.488 230.474,333.817 C 230.474,339.646 230.474,345.474 230.474,351.303 C 228.995,350.98 227.52,350.621 226.054,350.229 C 226.054,347.712 226.054,345.195 226.054,342.678 C 224.171,342.173 222.298,341.611 220.44,340.99 C 220.44,343.508 220.44,346.024 220.44,348.541 C 218.975,348.053 217.519,347.527 216.072,346.967 C 216.072,341.14 216.072,335.311 216.072,329.481 z " />
		<path
   id="path2287"
   style="fill:#fcc50e;stroke:none;stroke-width:0.86206895;stroke-miterlimit:4;stroke-dasharray:none"
   d="M 235.289,340.915 C 235.289,339.125 235.646,337.478 237.058,336.353 C 238.33,335.328 240.243,335.124 242.162,335.302 C 244.247,335.498 246.17,336.032 247.536,337.347 C 248.679,338.437 249.321,339.993 249.321,342.805 C 249.321,344.219 249.321,345.633 249.321,347.047 C 249.321,349.499 248.846,351.068 247.564,352.213 C 245.863,353.73 243.412,353.722 242.106,353.592 C 240.103,353.421 236.834,352.351 235.814,349.218 C 235.372,347.906 235.289,346.368 235.289,345.606 C 235.289,344.042 235.289,342.479 235.289,340.915 z M 239.828,347.038 C 239.828,348.867 240.244,350.244 242.245,350.437 C 244.665,350.649 244.667,348.695 244.666,347.487 C 244.666,345.463 244.666,343.437 244.666,341.413 C 244.666,340.191 244.665,338.736 242.3,338.53 C 239.826,338.289 239.828,340.264 239.828,340.964 C 239.828,342.988 239.828,345.014 239.828,347.038 z " />
		<path
   id="path2289"
   style="fill:#fcc50e;stroke:none;stroke-width:0.86206895;stroke-miterlimit:4;stroke-dasharray:none"
   d="M 254.229,336.014 C 256.479,335.945 258.726,335.798 260.967,335.573 C 263.968,335.264 265.571,335.549 266.649,336.217 C 267.92,336.988 268.497,338.283 268.497,340.024 C 268.498,342.744 266.761,344.333 265.848,344.942 C 264.382,345.926 262.774,346.206 261.191,346.415 C 260.376,346.523 259.56,346.62 258.744,346.708 C 258.744,348.892 258.744,351.075 258.744,353.259 C 257.241,353.375 255.736,353.456 254.23,353.502 C 254.229,347.671 254.229,341.843 254.229,336.014 z M 258.742,343.776 C 260.885,343.604 261.689,343.5 262.217,343.254 C 262.578,343.097 263.854,342.413 263.854,340.624 C 263.854,338.933 263.106,338.673 262.496,338.528 C 261.772,338.365 261.442,338.43 258.743,338.653 C 258.742,340.36 258.742,342.068 258.742,343.776 z " />
		<path
   id="path2291"
   style="fill:#fcc50e;stroke:none;stroke-width:0.86206895;stroke-miterlimit:4;stroke-dasharray:none"
   d="M 272.508,333.709 C 277.007,332.701 281.452,331.37 285.808,329.716 C 285.808,330.78 285.808,331.845 285.808,332.909 C 282.867,334.026 279.883,334.996 276.87,335.818 C 276.87,337.057 276.87,338.297 276.87,339.535 C 278.942,338.97 281,338.335 283.04,337.63 C 283.04,338.693 283.04,339.757 283.04,340.821 C 281.018,341.519 278.978,342.15 276.925,342.712 C 276.925,344.086 276.925,345.46 276.925,346.833 C 280.127,345.957 283.296,344.914 286.418,343.704 C 286.418,344.792 286.418,345.88 286.418,346.968 C 281.867,348.732 277.217,350.141 272.508,351.196 C 272.508,345.366 272.508,339.537 272.508,333.709 z " />
	</g>
</g></g>



<g
   id="g6132"><path
     d="M 252.44555,154.5929 C 243.46406,155.10071 221.73975,156.11844 204.23684,160.87139 L 204.41186,171.25249 C 204.41186,171.25249 240.63547,175.7415 252.4466,176.3116 C 264.25669,175.7415 300.4803,171.25249 300.4803,171.25249 L 300.65532,160.87139 C 283.15031,156.11949 261.42495,155.10071 252.44555,154.5929 z "
     style="fill:#fcc50e;stroke:#010101;stroke-width:0.90678543;stroke-miterlimit:4;stroke-dasharray:none"
     id="path2197" /><path
     id="path2202"
     d="M 258.0887,175.76805 C 256.49873,175.89325 253.62545,176.23945 252.45562,176.29592 C 251.27964,176.23916 248.38993,175.86121 246.78979,175.73505 L 246.00377,279.8905 L 245.97102,279.8905 C 245.82849,285.68229 242.92994,295.70444 223.20943,289.12823 C 214.82531,285.86388 205.06698,280.58438 193.17723,268.83821 C 196.97629,265.2223 206.34294,262.07487 206.34294,262.07487 C 184.85862,254.15681 167.56635,244.12727 167.56635,244.12727 C 166.51835,268.93719 184.33461,286.35691 184.33461,286.35691 C 184.5327,281.16055 185.76384,278.53203 187.1839,277.0202 C 202.51845,292.07823 214.29842,296.42578 224.1592,299.58667 C 235.505,303.22369 252.03536,318.59819 252.45562,319.08488 C 252.87484,318.59819 269.37347,303.22475 280.71929,299.58667 C 290.58007,296.42578 302.36002,292.07718 317.69458,277.0202 C 319.1136,278.53203 320.37854,281.16055 320.57662,286.35691 C 320.57872,286.35691 338.39289,268.93719 337.34488,244.12727 C 337.34487,244.12727 320.05262,254.15681 298.5683,262.07487 C 298.56828,262.07487 307.90219,265.22335 311.70125,268.83821 C 299.8115,280.58438 290.05317,285.86494 281.66905,289.12823 C 261.94959,295.70444 259.05,285.68229 258.90746,279.8905 L 258.87471,279.8905 L 258.0887,175.76805 z "
     style="fill:#fcc50e;stroke:#010101;stroke-width:0.90678543;stroke-miterlimit:4;stroke-dasharray:none" /><g
     transform="matrix(1.0480155,0,0,1.0557409,-12.004553,-10.306289)"
     style="stroke-width:0.86206895;stroke-miterlimit:4;stroke-dasharray:none"
     id="g2297">
	<g
   style="stroke-width:0.86206895;stroke-miterlimit:4;stroke-dasharray:none"
   id="g2299">
		<path
   id="path2301"
   style="fill:#fcc50e;stroke-width:0.86206895;stroke-miterlimit:4;stroke-dasharray:none"
   d="M 252.334,148.667 C 245.522,148.667 240,154.189 240,161 C 240,167.811 245.522,173.333 252.334,173.333 C 259.145,173.333 264.666,167.811 264.666,161 C 264.666,154.188 259.145,148.667 252.334,148.667 z M 252.334,169.679 C 247.54,169.679 243.654,165.793 243.654,161 C 243.654,156.207 247.54,152.32 252.334,152.32 C 257.126,152.32 261.012,156.206 261.012,161 C 261.012,165.792 257.126,169.679 252.334,169.679 z " />
	</g>
	<g
   style="stroke-width:0.86206895;stroke-miterlimit:4;stroke-dasharray:none"
   id="g2303">
		<path
   id="path2305"
   style="fill:none;stroke:#010101;stroke-width:0.86206895;stroke-miterlimit:4;stroke-dasharray:none"
   d="M 252.334,148.667 C 245.522,148.667 240,154.189 240,161 C 240,167.811 245.522,173.333 252.334,173.333 C 259.145,173.333 264.666,167.811 264.666,161 C 264.666,154.188 259.145,148.667 252.334,148.667 z M 252.334,169.679 C 247.54,169.679 243.654,165.793 243.654,161 C 243.654,156.207 247.54,152.32 252.334,152.32 C 257.126,152.32 261.012,156.206 261.012,161 C 261.012,165.792 257.126,169.679 252.334,169.679 z " />
	</g>
</g><path
     id="path2293"
     d="M 247.05178,141.72041 L 246.95353,154.98315 C 248.53576,154.89146 251.27513,154.65399 252.45562,154.58724 C 253.63066,154.65369 256.35138,154.89197 257.92495,154.98315 L 257.8267,141.72041 L 247.05178,141.72041 z "
     style="fill:#fcc50e;stroke:#010101;stroke-width:0.90678543;stroke-miterlimit:4;stroke-dasharray:none" /></g><g
   id="g6156"><path
     inkscape:transform-center-y="-198.17648"
     transform="matrix(0.9338151,0,0,0.9406987,182.13486,23.647044)"
     d="M 72.674416,34.883718 L 79.436794,55.614863 L 101.24297,55.639991 L 83.616173,68.47767 L 90.330755,89.224345 L 72.674416,76.427322 L 55.018075,89.224344 L 61.732658,68.47767 L 44.105858,55.63999 L 65.912038,55.614863 L 72.674416,34.883718 z "
     inkscape:randomized="8.6736174e-016"
     inkscape:rounded="0"
     inkscape:flatsided="false"
     sodipodi:arg2="-0.9424778"
     sodipodi:arg1="-1.5707963"
     sodipodi:r2="11.504845"
     sodipodi:r1="30.038759"
     sodipodi:cy="64.922478"
     sodipodi:cx="72.674416"
     sodipodi:sides="5"
     id="path2215"
     style="opacity:1;fill:#ffcc00;fill-opacity:1;fill-rule:nonzero;stroke:#000000;stroke-width:0.91260076;stroke-linecap:round;stroke-linejoin:round;stroke-miterlimit:4;stroke-dasharray:none;stroke-opacity:1"
     sodipodi:type="star" /><path
     inkscape:transform-center-x="-91.43812"
     sodipodi:type="star"
     style="opacity:1;fill:#ffcc00;fill-opacity:1;fill-rule:nonzero;stroke:#000000;stroke-width:0.91260076;stroke-linecap:round;stroke-linejoin:round;stroke-miterlimit:4;stroke-dasharray:none;stroke-opacity:1"
     id="path6096"
     sodipodi:sides="5"
     sodipodi:cx="72.674416"
     sodipodi:cy="64.922478"
     sodipodi:r1="30.038759"
     sodipodi:r2="11.504845"
     sodipodi:arg1="-1.5707963"
     sodipodi:arg2="-0.9424778"
     inkscape:flatsided="false"
     inkscape:rounded="0"
     inkscape:randomized="8.6736174e-016"
     d="M 72.674416,34.883718 L 79.436794,55.614863 L 101.24297,55.639991 L 83.616173,68.47767 L 90.330755,89.224345 L 72.674416,76.427322 L 55.018075,89.224344 L 61.732658,68.47767 L 44.105858,55.63999 L 65.912038,55.614863 L 72.674416,34.883718 z "
     transform="matrix(0.8268361,0.4371953,-0.4339962,0.8329311,295.65944,18.13338)"
     inkscape:transform-center-y="-170.99598" /><path
     inkscape:transform-center-y="-111.05182"
     transform="matrix(0.5305088,0.7741511,-0.7684862,0.5344194,398.6986,66.38237)"
     d="M 72.674416,34.883718 L 79.436794,55.614863 L 101.24297,55.639991 L 83.616173,68.47767 L 90.330755,89.224345 L 72.674416,76.427322 L 55.018075,89.224344 L 61.732658,68.47767 L 44.105858,55.63999 L 65.912038,55.614863 L 72.674416,34.883718 z "
     inkscape:randomized="8.6736174e-016"
     inkscape:rounded="0"
     inkscape:flatsided="false"
     sodipodi:arg2="-0.9424778"
     sodipodi:arg1="-1.5707963"
     sodipodi:r2="11.504845"
     sodipodi:r1="30.038759"
     sodipodi:cy="64.922478"
     sodipodi:cx="72.674416"
     sodipodi:sides="5"
     id="path6098"
     style="opacity:1;fill:#ffcc00;fill-opacity:1;fill-rule:nonzero;stroke:#000000;stroke-width:0.91260076;stroke-linecap:round;stroke-linejoin:round;stroke-miterlimit:4;stroke-dasharray:none;stroke-opacity:1"
     sodipodi:type="star"
     inkscape:transform-center-x="-156.46382" /><path
     inkscape:transform-center-x="-194.13406"
     sodipodi:type="star"
     style="opacity:1;fill:#ffcc00;fill-opacity:1;fill-rule:nonzero;stroke:#000000;stroke-width:0.91260076;stroke-linecap:round;stroke-linejoin:round;stroke-miterlimit:4;stroke-dasharray:none;stroke-opacity:1"
     id="path6100"
     sodipodi:sides="5"
     sodipodi:cx="72.674416"
     sodipodi:cy="64.922478"
     sodipodi:r1="30.038759"
     sodipodi:r2="11.504845"
     sodipodi:arg1="-1.5707963"
     sodipodi:arg2="-0.9424778"
     inkscape:flatsided="false"
     inkscape:rounded="0"
     inkscape:randomized="8.6736174e-016"
     d="M 72.674416,34.883718 L 79.436794,55.614863 L 101.24297,55.639991 L 83.616173,68.47767 L 90.330755,89.224345 L 72.674416,76.427322 L 55.018075,89.224344 L 61.732658,68.47767 L 44.105858,55.63999 L 65.912038,55.614863 L 72.674416,34.883718 z "
     transform="matrix(0.1127056,0.933822,-0.9269887,0.1135364,467.68383,157.33314)"
     inkscape:transform-center-y="-24.763345" /><path
     inkscape:transform-center-y="71.790262"
     transform="matrix(-0.3309573,0.8796365,-0.8731998,-0.3333969,486.82024,270.17334)"
     d="M 72.674416,34.883718 L 79.436794,55.614863 L 101.24297,55.639991 L 83.616173,68.47767 L 90.330755,89.224345 L 72.674416,76.427322 L 55.018075,89.224344 L 61.732658,68.47767 L 44.105858,55.63999 L 65.912038,55.614863 L 72.674416,34.883718 z "
     inkscape:randomized="8.6736174e-016"
     inkscape:rounded="0"
     inkscape:flatsided="false"
     sodipodi:arg2="-0.9424778"
     sodipodi:arg1="-1.5707963"
     sodipodi:r2="11.504845"
     sodipodi:r1="30.038759"
     sodipodi:cy="64.922478"
     sodipodi:cx="72.674416"
     sodipodi:sides="5"
     id="path6102"
     style="opacity:1;fill:#ffcc00;fill-opacity:1;fill-rule:nonzero;stroke:#000000;stroke-width:0.91260076;stroke-linecap:round;stroke-linejoin:round;stroke-miterlimit:4;stroke-dasharray:none;stroke-opacity:1"
     sodipodi:type="star"
     inkscape:transform-center-x="-180.5673" /><path
     inkscape:transform-center-x="-127.46289"
     sodipodi:type="star"
     style="opacity:1;fill:#ffcc00;fill-opacity:1;fill-rule:nonzero;stroke:#000000;stroke-width:0.91260076;stroke-linecap:round;stroke-linejoin:round;stroke-miterlimit:4;stroke-dasharray:none;stroke-opacity:1"
     id="path6104"
     sodipodi:sides="5"
     sodipodi:cx="72.674416"
     sodipodi:cy="64.922478"
     sodipodi:r1="30.038759"
     sodipodi:r2="11.504845"
     sodipodi:arg1="-1.5707963"
     sodipodi:arg2="-0.9424778"
     inkscape:flatsided="false"
     inkscape:rounded="0"
     inkscape:randomized="8.6736174e-016"
     d="M 72.674416,34.883718 L 79.436794,55.614863 L 101.24297,55.639991 L 83.616173,68.47767 L 90.330755,89.224345 L 72.674416,76.427322 L 55.018075,89.224344 L 61.732658,68.47767 L 44.105858,55.63999 L 65.912038,55.614863 L 72.674416,34.883718 z "
     transform="matrix(-0.6987865,0.6240079,-0.6194417,-0.7039376,451.71988,379.039)"
     inkscape:transform-center-y="143.77314" /><path
     inkscape:transform-center-y="190.08951"
     transform="matrix(-0.9065898,0.2254925,-0.2238425,-0.9132727,370.42792,459.00866)"
     d="M 72.674416,34.883718 L 79.436794,55.614863 L 101.24297,55.639991 L 83.616173,68.47767 L 90.330755,89.224345 L 72.674416,76.427322 L 55.018075,89.224344 L 61.732658,68.47767 L 44.105858,55.63999 L 65.912038,55.614863 L 72.674416,34.883718 z "
     inkscape:randomized="8.6736174e-016"
     inkscape:rounded="0"
     inkscape:flatsided="false"
     sodipodi:arg2="-0.9424778"
     sodipodi:arg1="-1.5707963"
     sodipodi:r2="11.504845"
     sodipodi:r1="30.038759"
     sodipodi:cy="64.922478"
     sodipodi:cx="72.674416"
     sodipodi:sides="5"
     id="path6106"
     style="opacity:1;fill:#ffcc00;fill-opacity:1;fill-rule:nonzero;stroke:#000000;stroke-width:0.91260076;stroke-linecap:round;stroke-linejoin:round;stroke-miterlimit:4;stroke-dasharray:none;stroke-opacity:1"
     sodipodi:type="star"
     inkscape:transform-center-x="-48.822208" /><path
     inkscape:transform-center-y="-170.99608"
     transform="matrix(-0.8268477,0.4371956,0.4340022,0.8329316,204.34255,18.133042)"
     d="M 72.674416,34.883718 L 79.436794,55.614863 L 101.24297,55.639991 L 83.616173,68.47767 L 90.330755,89.224345 L 72.674416,76.427322 L 55.018075,89.224344 L 61.732658,68.47767 L 44.105858,55.63999 L 65.912038,55.614863 L 72.674416,34.883718 z "
     inkscape:randomized="8.6736174e-016"
     inkscape:rounded="0"
     inkscape:flatsided="false"
     sodipodi:arg2="-0.9424778"
     sodipodi:arg1="-1.5707963"
     sodipodi:r2="11.504845"
     sodipodi:r1="30.038759"
     sodipodi:cy="64.922478"
     sodipodi:cx="72.674416"
     sodipodi:sides="5"
     id="path6118"
     style="opacity:1;fill:#ffcc00;fill-opacity:1;fill-rule:nonzero;stroke:#000000;stroke-width:0.91260076;stroke-linecap:round;stroke-linejoin:round;stroke-miterlimit:4;stroke-dasharray:none;stroke-opacity:1"
     sodipodi:type="star"
     inkscape:transform-center-x="91.439421" /><path
     inkscape:transform-center-x="156.46595"
     sodipodi:type="star"
     style="opacity:1;fill:#ffcc00;fill-opacity:1;fill-rule:nonzero;stroke:#000000;stroke-width:0.91260076;stroke-linecap:round;stroke-linejoin:round;stroke-miterlimit:4;stroke-dasharray:none;stroke-opacity:1"
     id="path6120"
     sodipodi:sides="5"
     sodipodi:cx="72.674416"
     sodipodi:cy="64.922478"
     sodipodi:r1="30.038759"
     sodipodi:r2="11.504845"
     sodipodi:arg1="-1.5707963"
     sodipodi:arg2="-0.9424778"
     inkscape:flatsided="false"
     inkscape:rounded="0"
     inkscape:randomized="8.6736174e-016"
     d="M 72.674416,34.883718 L 79.436794,55.614863 L 101.24297,55.639991 L 83.616173,68.47767 L 90.330755,89.224345 L 72.674416,76.427322 L 55.018075,89.224344 L 61.732658,68.47767 L 44.105858,55.63999 L 65.912038,55.614863 L 72.674416,34.883718 z "
     transform="matrix(-0.5305159,0.7741515,0.7684967,0.5344198,101.30201,66.382061)"
     inkscape:transform-center-y="-111.0519" /><path
     inkscape:transform-center-y="-24.763381"
     transform="matrix(-0.1127071,0.9338225,0.9270015,0.1135365,32.315817,157.33288)"
     d="M 72.674416,34.883718 L 79.436794,55.614863 L 101.24297,55.639991 L 83.616173,68.47767 L 90.330755,89.224345 L 72.674416,76.427322 L 55.018075,89.224344 L 61.732658,68.47767 L 44.105858,55.63999 L 65.912038,55.614863 L 72.674416,34.883718 z "
     inkscape:randomized="8.6736174e-016"
     inkscape:rounded="0"
     inkscape:flatsided="false"
     sodipodi:arg2="-0.9424778"
     sodipodi:arg1="-1.5707963"
     sodipodi:r2="11.504845"
     sodipodi:r1="30.038759"
     sodipodi:cy="64.922478"
     sodipodi:cx="72.674416"
     sodipodi:sides="5"
     id="path6122"
     style="opacity:1;fill:#ffcc00;fill-opacity:1;fill-rule:nonzero;stroke:#000000;stroke-width:0.91260076;stroke-linecap:round;stroke-linejoin:round;stroke-miterlimit:4;stroke-dasharray:none;stroke-opacity:1"
     sodipodi:type="star"
     inkscape:transform-center-x="194.13671" /><path
     inkscape:transform-center-x="180.56979"
     sodipodi:type="star"
     style="opacity:1;fill:#ffcc00;fill-opacity:1;fill-rule:nonzero;stroke:#000000;stroke-width:0.91260076;stroke-linecap:round;stroke-linejoin:round;stroke-miterlimit:4;stroke-dasharray:none;stroke-opacity:1"
     id="path6124"
     sodipodi:sides="5"
     sodipodi:cx="72.674416"
     sodipodi:cy="64.922478"
     sodipodi:r1="30.038759"
     sodipodi:r2="11.504845"
     sodipodi:arg1="-1.5707963"
     sodipodi:arg2="-0.9424778"
     inkscape:flatsided="false"
     inkscape:rounded="0"
     inkscape:randomized="8.6736174e-016"
     d="M 72.674416,34.883718 L 79.436794,55.614863 L 101.24297,55.639991 L 83.616173,68.47767 L 90.330755,89.224345 L 72.674416,76.427322 L 55.018075,89.224344 L 61.732658,68.47767 L 44.105858,55.63999 L 65.912038,55.614863 L 72.674416,34.883718 z "
     transform="matrix(0.3309618,0.8796371,0.8732119,-0.3333971,13.179117,270.17317)"
     inkscape:transform-center-y="71.79032" /><path
     inkscape:transform-center-y="143.77321"
     transform="matrix(0.698796,0.6240083,0.6194504,-0.7039381,48.279967,379.03889)"
     d="M 72.674416,34.883718 L 79.436794,55.614863 L 101.24297,55.639991 L 83.616173,68.47767 L 90.330755,89.224345 L 72.674416,76.427322 L 55.018075,89.224344 L 61.732658,68.47767 L 44.105858,55.63999 L 65.912038,55.614863 L 72.674416,34.883718 z "
     inkscape:randomized="8.6736174e-016"
     inkscape:rounded="0"
     inkscape:flatsided="false"
     sodipodi:arg2="-0.9424778"
     sodipodi:arg1="-1.5707963"
     sodipodi:r2="11.504845"
     sodipodi:r1="30.038759"
     sodipodi:cy="64.922478"
     sodipodi:cx="72.674416"
     sodipodi:sides="5"
     id="path6126"
     style="opacity:1;fill:#ffcc00;fill-opacity:1;fill-rule:nonzero;stroke:#000000;stroke-width:0.91260076;stroke-linecap:round;stroke-linejoin:round;stroke-miterlimit:4;stroke-dasharray:none;stroke-opacity:1"
     sodipodi:type="star"
     inkscape:transform-center-x="127.46465" /><path
     inkscape:transform-center-x="48.82286"
     sodipodi:type="star"
     style="opacity:1;fill:#ffcc00;fill-opacity:1;fill-rule:nonzero;stroke:#000000;stroke-width:0.91260076;stroke-linecap:round;stroke-linejoin:round;stroke-miterlimit:4;stroke-dasharray:none;stroke-opacity:1"
     id="path6128"
     sodipodi:sides="5"
     sodipodi:cx="72.674416"
     sodipodi:cy="64.922478"
     sodipodi:r1="30.038759"
     sodipodi:r2="11.504845"
     sodipodi:arg1="-1.5707963"
     sodipodi:arg2="-0.9424778"
     inkscape:flatsided="false"
     inkscape:rounded="0"
     inkscape:randomized="8.6736174e-016"
     d="M 72.674416,34.883718 L 79.436794,55.614863 L 101.24297,55.639991 L 83.616173,68.47767 L 90.330755,89.224345 L 72.674416,76.427322 L 55.018075,89.224344 L 61.732658,68.47767 L 44.105858,55.63999 L 65.912038,55.614863 L 72.674416,34.883718 z "
     transform="matrix(0.9066024,0.2254927,0.2238456,-0.9132733,129.57307,459.00861)"
     inkscape:transform-center-y="190.08965" /></g></svg>